solid dielectric
  facet normal 0.0000000e+00 0.0000000e+00 -1.0000000e+00
    outer loop
      vertex 1.5000000e-01 1.5000000e-01 2.8000000e-01
      vertex 7.8500000e+00 4.8500000e+00 2.8000000e-01
      vertex 7.8500000e+00 1.5000000e-01 2.8000000e-01
    endloop
  endfacet
  facet normal 0.0000000e+00 0.0000000e+00 -1.0000000e+00
    outer loop
      vertex 1.5000000e-01 1.5000000e-01 2.8000000e-01
      vertex 1.5000000e-01 4.8500000e+00 2.8000000e-01
      vertex 7.8500000e+00 4.8500000e+00 2.8000000e-01
    endloop
  endfacet
  facet normal 0.0000000e+00 0.0000000e+00 1.0000000e+00
    outer loop
      vertex 1.5000000e-01 1.5000000e-01 7.2000000e-01
      vertex 7.8500000e+00 1.5000000e-01 7.2000000e-01
      vertex 7.8500000e+00 4.8500000e+00 7.2000000e-01
    endloop
  endfacet
  facet normal 0.0000000e+00 0.0000000e+00 1.0000000e+00
    outer loop
      vertex 1.5000000e-01 1.5000000e-01 7.2000000e-01
      vertex 7.8500000e+00 4.8500000e+00 7.2000000e-01
      vertex 1.5000000e-01 4.8500000e+00 7.2000000e-01
    endloop
  endfacet
  facet normal 0.0000000e+00 -1.0000000e+00 0.0000000e+00
    outer loop
      vertex 1.5000000e-01 1.5000000e-01 2.8000000e-01
      vertex 7.8500000e+00 1.5000000e-01 2.8000000e-01
      vertex 7.8500000e+00 1.5000000e-01 7.2000000e-01
    endloop
  endfacet
  facet normal 0.0000000e+00 -1.0000000e+00 0.0000000e+00
    outer loop
      vertex 1.5000000e-01 1.5000000e-01 2.8000000e-01
      vertex 7.8500000e+00 1.5000000e-01 7.2000000e-01
      vertex 1.5000000e-01 1.5000000e-01 7.2000000e-01
    endloop
  endfacet
  facet normal 0.0000000e+00 1.0000000e+00 0.0000000e+00
    outer loop
      vertex 1.5000000e-01 4.8500000e+00 2.8000000e-01
      vertex 1.5000000e-01 4.8500000e+00 7.2000000e-01
      vertex 7.8500000e+00 4.8500000e+00 7.2000000e-01
    endloop
  endfacet
  facet normal 0.0000000e+00 1.0000000e+00 0.0000000e+00
    outer loop
      vertex 1.5000000e-01 4.8500000e+00 2.8000000e-01
      vertex 7.8500000e+00 4.8500000e+00 7.2000000e-01
      vertex 7.8500000e+00 4.8500000e+00 2.8000000e-01
    endloop
  endfacet
  facet normal -1.0000000e+00 0.0000000e+00 0.0000000e+00
    outer loop
      vertex 1.5000000e-01 1.5000000e-01 2.8000000e-01
      vertex 1.5000000e-01 1.5000000e-01 7.2000000e-01
      vertex 1.5000000e-01 4.8500000e+00 7.2000000e-01
    endloop
  endfacet
  facet normal -1.0000000e+00 0.0000000e+00 0.0000000e+00
    outer loop
      vertex 1.5000000e-01 1.5000000e-01 2.8000000e-01
      vertex 1.5000000e-01 4.8500000e+00 7.2000000e-01
      vertex 1.5000000e-01 4.8500000e+00 2.8000000e-01
    endloop
  endfacet
  facet normal 1.0000000e+00 0.0000000e+00 0.0000000e+00
    outer loop
      vertex 7.8500000e+00 1.5000000e-01 2.8000000e-01
      vertex 7.8500000e+00 4.8500000e+00 2.8000000e-01
      vertex 7.8500000e+00 4.8500000e+00 7.2000000e-01
    endloop
  endfacet
  facet normal 1.0000000e+00 0.0000000e+00 0.0000000e+00
    outer loop
      vertex 7.8500000e+00 1.5000000e-01 2.8000000e-01
      vertex 7.8500000e+00 4.8500000e+00 7.2000000e-01
      vertex 7.8500000e+00 1.5000000e-01 7.2000000e-01
    endloop
  endfacet
endsolid dielectric
