solid gate
  facet normal 0.0000000e+00 0.0000000e+00 -1.0000000e+00
    outer loop
      vertex 0.0000000e+00 0.0000000e+00 0.0000000e+00
      vertex 8.0000000e+00 5.0000000e+00 0.0000000e+00
      vertex 8.0000000e+00 0.0000000e+00 0.0000000e+00
    endloop
  endfacet
  facet normal 0.0000000e+00 0.0000000e+00 -1.0000000e+00
    outer loop
      vertex 0.0000000e+00 0.0000000e+00 0.0000000e+00
      vertex 0.0000000e+00 5.0000000e+00 0.0000000e+00
      vertex 8.0000000e+00 5.0000000e+00 0.0000000e+00
    endloop
  endfacet
  facet normal 0.0000000e+00 0.0000000e+00 1.0000000e+00
    outer loop
      vertex 0.0000000e+00 0.0000000e+00 2.8000000e-01
      vertex 8.0000000e+00 0.0000000e+00 2.8000000e-01
      vertex 8.0000000e+00 5.0000000e+00 2.8000000e-01
    endloop
  endfacet
  facet normal 0.0000000e+00 0.0000000e+00 1.0000000e+00
    outer loop
      vertex 0.0000000e+00 0.0000000e+00 2.8000000e-01
      vertex 8.0000000e+00 5.0000000e+00 2.8000000e-01
      vertex 0.0000000e+00 5.0000000e+00 2.8000000e-01
    endloop
  endfacet
  facet normal 0.0000000e+00 -1.0000000e+00 0.0000000e+00
    outer loop
      vertex 0.0000000e+00 0.0000000e+00 0.0000000e+00
      vertex 8.0000000e+00 0.0000000e+00 0.0000000e+00
      vertex 8.0000000e+00 0.0000000e+00 2.8000000e-01
    endloop
  endfacet
  facet normal 0.0000000e+00 -1.0000000e+00 0.0000000e+00
    outer loop
      vertex 0.0000000e+00 0.0000000e+00 0.0000000e+00
      vertex 8.0000000e+00 0.0000000e+00 2.8000000e-01
      vertex 0.0000000e+00 0.0000000e+00 2.8000000e-01
    endloop
  endfacet
  facet normal 0.0000000e+00 1.0000000e+00 0.0000000e+00
    outer loop
      vertex 0.0000000e+00 5.0000000e+00 0.0000000e+00
      vertex 0.0000000e+00 5.0000000e+00 2.8000000e-01
      vertex 8.0000000e+00 5.0000000e+00 2.8000000e-01
    endloop
  endfacet
  facet normal 0.0000000e+00 1.0000000e+00 0.0000000e+00
    outer loop
      vertex 0.0000000e+00 5.0000000e+00 0.0000000e+00
      vertex 8.0000000e+00 5.0000000e+00 2.8000000e-01
      vertex 8.0000000e+00 5.0000000e+00 0.0000000e+00
    endloop
  endfacet
  facet normal -1.0000000e+00 0.0000000e+00 0.0000000e+00
    outer loop
      vertex 0.0000000e+00 0.0000000e+00 0.0000000e+00
      vertex 0.0000000e+00 0.0000000e+00 2.8000000e-01
      vertex 0.0000000e+00 5.0000000e+00 2.8000000e-01
    endloop
  endfacet
  facet normal -1.0000000e+00 0.0000000e+00 0.0000000e+00
    outer loop
      vertex 0.0000000e+00 0.0000000e+00 0.0000000e+00
      vertex 0.0000000e+00 5.0000000e+00 2.8000000e-01
      vertex 0.0000000e+00 5.0000000e+00 0.0000000e+00
    endloop
  endfacet
  facet normal 1.0000000e+00 0.0000000e+00 0.0000000e+00
    outer loop
      vertex 8.0000000e+00 0.0000000e+00 0.0000000e+00
      vertex 8.0000000e+00 5.0000000e+00 0.0000000e+00
      vertex 8.0000000e+00 5.0000000e+00 2.8000000e-01
    endloop
  endfacet
  facet normal 1.0000000e+00 0.0000000e+00 0.0000000e+00
    outer loop
      vertex 8.0000000e+00 0.0000000e+00 0.0000000e+00
      vertex 8.0000000e+00 5.0000000e+00 2.8000000e-01
      vertex 8.0000000e+00 0.0000000e+00 2.8000000e-01
    endloop
  endfacet
endsolid gate
