solid semiconductor
  facet normal 0.0000000e+00 0.0000000e+00 -1.0000000e+00
    outer loop
      vertex 2.5000000e-01 2.5000000e-01 7.2000000e-01
      vertex 7.7500000e+00 4.7500000e+00 7.2000000e-01
      vertex 7.7500000e+00 2.5000000e-01 7.2000000e-01
    endloop
  endfacet
  facet normal 0.0000000e+00 0.0000000e+00 -1.0000000e+00
    outer loop
      vertex 2.5000000e-01 2.5000000e-01 7.2000000e-01
      vertex 2.5000000e-01 4.7500000e+00 7.2000000e-01
      vertex 7.7500000e+00 4.7500000e+00 7.2000000e-01
    endloop
  endfacet
  facet normal 0.0000000e+00 0.0000000e+00 1.0000000e+00
    outer loop
      vertex 2.5000000e-01 2.5000000e-01 8.8000000e-01
      vertex 7.7500000e+00 2.5000000e-01 8.8000000e-01
      vertex 7.7500000e+00 4.7500000e+00 8.8000000e-01
    endloop
  endfacet
  facet normal 0.0000000e+00 0.0000000e+00 1.0000000e+00
    outer loop
      vertex 2.5000000e-01 2.5000000e-01 8.8000000e-01
      vertex 7.7500000e+00 4.7500000e+00 8.8000000e-01
      vertex 2.5000000e-01 4.7500000e+00 8.8000000e-01
    endloop
  endfacet
  facet normal 0.0000000e+00 -1.0000000e+00 0.0000000e+00
    outer loop
      vertex 2.5000000e-01 2.5000000e-01 7.2000000e-01
      vertex 7.7500000e+00 2.5000000e-01 7.2000000e-01
      vertex 7.7500000e+00 2.5000000e-01 8.8000000e-01
    endloop
  endfacet
  facet normal 0.0000000e+00 -1.0000000e+00 0.0000000e+00
    outer loop
      vertex 2.5000000e-01 2.5000000e-01 7.2000000e-01
      vertex 7.7500000e+00 2.5000000e-01 8.8000000e-01
      vertex 2.5000000e-01 2.5000000e-01 8.8000000e-01
    endloop
  endfacet
  facet normal 0.0000000e+00 1.0000000e+00 0.0000000e+00
    outer loop
      vertex 2.5000000e-01 4.7500000e+00 7.2000000e-01
      vertex 2.5000000e-01 4.7500000e+00 8.8000000e-01
      vertex 7.7500000e+00 4.7500000e+00 8.8000000e-01
    endloop
  endfacet
  facet normal 0.0000000e+00 1.0000000e+00 0.0000000e+00
    outer loop
      vertex 2.5000000e-01 4.7500000e+00 7.2000000e-01
      vertex 7.7500000e+00 4.7500000e+00 8.8000000e-01
      vertex 7.7500000e+00 4.7500000e+00 7.2000000e-01
    endloop
  endfacet
  facet normal -1.0000000e+00 0.0000000e+00 0.0000000e+00
    outer loop
      vertex 2.5000000e-01 2.5000000e-01 7.2000000e-01
      vertex 2.5000000e-01 2.5000000e-01 8.8000000e-01
      vertex 2.5000000e-01 4.7500000e+00 8.8000000e-01
    endloop
  endfacet
  facet normal -1.0000000e+00 0.0000000e+00 0.0000000e+00
    outer loop
      vertex 2.5000000e-01 2.5000000e-01 7.2000000e-01
      vertex 2.5000000e-01 4.7500000e+00 8.8000000e-01
      vertex 2.5000000e-01 4.7500000e+00 7.2000000e-01
    endloop
  endfacet
  facet normal 1.0000000e+00 0.0000000e+00 0.0000000e+00
    outer loop
      vertex 7.7500000e+00 2.5000000e-01 7.2000000e-01
      vertex 7.7500000e+00 4.7500000e+00 7.2000000e-01
      vertex 7.7500000e+00 4.7500000e+00 8.8000000e-01
    endloop
  endfacet
  facet normal 1.0000000e+00 0.0000000e+00 0.0000000e+00
    outer loop
      vertex 7.7500000e+00 2.5000000e-01 7.2000000e-01
      vertex 7.7500000e+00 4.7500000e+00 8.8000000e-01
      vertex 7.7500000e+00 2.5000000e-01 8.8000000e-01
    endloop
  endfacet
endsolid semiconductor
