solid source
  facet normal 0.0000000e+00 0.0000000e+00 -1.0000000e+00
    outer loop
      vertex 5.4500000e+00 5.5000000e-01 8.8000000e-01
      vertex 7.4500000e+00 4.4500000e+00 8.8000000e-01
      vertex 7.4500000e+00 5.5000000e-01 8.8000000e-01
    endloop
  endfacet
  facet normal 0.0000000e+00 0.0000000e+00 -1.0000000e+00
    outer loop
      vertex 5.4500000e+00 5.5000000e-01 8.8000000e-01
      vertex 5.4500000e+00 4.4500000e+00 8.8000000e-01
      vertex 7.4500000e+00 4.4500000e+00 8.8000000e-01
    endloop
  endfacet
  facet normal 0.0000000e+00 0.0000000e+00 1.0000000e+00
    outer loop
      vertex 5.4500000e+00 5.5000000e-01 1.3500000e+00
      vertex 7.4500000e+00 5.5000000e-01 1.3500000e+00
      vertex 7.4500000e+00 4.4500000e+00 1.3500000e+00
    endloop
  endfacet
  facet normal 0.0000000e+00 0.0000000e+00 1.0000000e+00
    outer loop
      vertex 5.4500000e+00 5.5000000e-01 1.3500000e+00
      vertex 7.4500000e+00 4.4500000e+00 1.3500000e+00
      vertex 5.4500000e+00 4.4500000e+00 1.3500000e+00
    endloop
  endfacet
  facet normal 0.0000000e+00 -1.0000000e+00 0.0000000e+00
    outer loop
      vertex 5.4500000e+00 5.5000000e-01 8.8000000e-01
      vertex 7.4500000e+00 5.5000000e-01 8.8000000e-01
      vertex 7.4500000e+00 5.5000000e-01 1.3500000e+00
    endloop
  endfacet
  facet normal 0.0000000e+00 -1.0000000e+00 0.0000000e+00
    outer loop
      vertex 5.4500000e+00 5.5000000e-01 8.8000000e-01
      vertex 7.4500000e+00 5.5000000e-01 1.3500000e+00
      vertex 5.4500000e+00 5.5000000e-01 1.3500000e+00
    endloop
  endfacet
  facet normal 0.0000000e+00 1.0000000e+00 0.0000000e+00
    outer loop
      vertex 5.4500000e+00 4.4500000e+00 8.8000000e-01
      vertex 5.4500000e+00 4.4500000e+00 1.3500000e+00
      vertex 7.4500000e+00 4.4500000e+00 1.3500000e+00
    endloop
  endfacet
  facet normal 0.0000000e+00 1.0000000e+00 0.0000000e+00
    outer loop
      vertex 5.4500000e+00 4.4500000e+00 8.8000000e-01
      vertex 7.4500000e+00 4.4500000e+00 1.3500000e+00
      vertex 7.4500000e+00 4.4500000e+00 8.8000000e-01
    endloop
  endfacet
  facet normal -1.0000000e+00 0.0000000e+00 0.0000000e+00
    outer loop
      vertex 5.4500000e+00 5.5000000e-01 8.8000000e-01
      vertex 5.4500000e+00 5.5000000e-01 1.3500000e+00
      vertex 5.4500000e+00 4.4500000e+00 1.3500000e+00
    endloop
  endfacet
  facet normal -1.0000000e+00 0.0000000e+00 0.0000000e+00
    outer loop
      vertex 5.4500000e+00 5.5000000e-01 8.8000000e-01
      vertex 5.4500000e+00 4.4500000e+00 1.3500000e+00
      vertex 5.4500000e+00 4.4500000e+00 8.8000000e-01
    endloop
  endfacet
  facet normal 1.0000000e+00 0.0000000e+00 0.0000000e+00
    outer loop
      vertex 7.4500000e+00 5.5000000e-01 8.8000000e-01
      vertex 7.4500000e+00 4.4500000e+00 8.8000000e-01
      vertex 7.4500000e+00 4.4500000e+00 1.3500000e+00
    endloop
  endfacet
  facet normal 1.0000000e+00 0.0000000e+00 0.0000000e+00
    outer loop
      vertex 7.4500000e+00 5.5000000e-01 8.8000000e-01
      vertex 7.4500000e+00 4.4500000e+00 1.3500000e+00
      vertex 7.4500000e+00 5.5000000e-01 1.3500000e+00
    endloop
  endfacet
endsolid source
